# xmcd
#
# Track frame offsets: 
#        150
#        9127
#        19976
#        28052
#        29904
#        39756
#        52481
#        63943
#        68271
#        70915
#        80903
#        90227
#        108798
#        127944
#        137154
#        147000
#        155925
#        173907
#        180917
#        186942
#        198500
#        214304
#        220618
#        231230
#        238127
#        258296
#
# Disc length: 3635 seconds
#
# Revision: 6
# Processed by: cddbd v1.5.2PL0 Copyright (c) Steve Scherf et al.
# Submitted via: ExactAudioCopy v1.0b3
#
DISCID=700e311a
DTITLE=Frédéric Chopin - Collection Historique - Arthur Rubinstein vol
DTITLE=2 - Mazurkas op. 6, 7, 17, 24, 30, 33
DYEAR=1939
DGENRE=Romantique
TTITLE0=Mazurka op. 6 n° 1 en fa dièse mineur (Arthur Rubinstein 1938-
TTITLE0=1939)
TTITLE1=Mazurka op. 6 n° 2 en ut dièse mineur (Arthur Rubinstein 1938-
TTITLE1=1939)
TTITLE2=Mazurka op. 6 n° 3 en mi majeur (Arthur Rubinstein 1938-1939)
TTITLE3=Mazurka op. 6 n° 4 en mi bémol mineur (Arthur Rubinstein 1938-
TTITLE3=1939)
TTITLE4=Mazurka op. 7 n° 1 en si bémol majeur (Arthur Rubinstein 1938-
TTITLE4=1939)
TTITLE5=Mazurka op. 7 n° 2 en la mineur (Arthur Rubinstein 1938-1939)
TTITLE6=Mazurka op. 7 n° 3 en fa mineur (Arthur Rubinstein 1938-1939)
TTITLE7=Mazurka op. 7 n° 4 en la bémol majeur (Arthur Rubinstein 1938-
TTITLE7=1939)
TTITLE8=Mazurka op. 7 n° 5 en ut majeur (Arthur Rubinstein 1938-1939)
TTITLE9=Mazurka op. 17 n° 1 en si bémol majeur (Arthur Rubinstein 1938
TTITLE9=1939)
TTITLE10=Mazurka op. 17 n° 2 en mi mineur (Arthur Rubinstein 1938-1939
TTITLE10=)
TTITLE11=Mazurka op. 17 n° 3 en la bémol majeur (Arthur Rubinstein 193
TTITLE11=8-1939)
TTITLE12=Mazurka op. 17 n° 4 en la mineur (Arthur Rubinstein 1938-1939
TTITLE12=)
TTITLE13=Mazurka op. 24 n° 1 en sol mineur (Arthur Rubinstein 1938-193
TTITLE13=9)
TTITLE14=Mazurka op. 24 n° 2 en ut majeur (Arthur Rubinstein 1938-1939
TTITLE14=)
TTITLE15=Mazurka op. 24 n° 3 en la bémol majeur (Arthur Rubinstein 193
TTITLE15=8-1939)
TTITLE16=Mazurka op. 24 n° 4 en si bémol mineur (Arthur Rubinstein 193
TTITLE16=8-1939)
TTITLE17=Mazurka op. 30 n° 1 en ut mineur (Arthur Rubinstein 1938-1939
TTITLE17=)
TTITLE18=Mazurka op. 30 n° 2 en si mineur (Arthur Rubinstein 1938-1939
TTITLE18=)
TTITLE19=Mazurka op. 30 n° 3 en ré bémol majeur (Arthur Rubinstein 193
TTITLE19=8-1939)
TTITLE20=Mazurka op. 30 n° 4 en ut dièse mineur (Arthur Rubinstein 193
TTITLE20=8-1939)
TTITLE21=Mazurka op. 33 n° 1 en sol dièse mineur (Arthur Rubinstein 19
TTITLE21=38-1939)
TTITLE22=Mazurka op. 33 n° 2 en ré majeur (Arthur Rubinstein 1938-1939
TTITLE22=)
TTITLE23=Mazurka op. 33 n° 3 en ut majeur (Arthur Rubinstein 1938-1939
TTITLE23=)
TTITLE24=Mazurka op. 33 n° 4 en si mineur (Arthur Rubinstein 1938-1939
TTITLE24=)
TTITLE25=Mazurka op. 41 n° 1 en ut dièse mineur (Arthur Rubinstein 193
TTITLE25=8-1939)
EXTD=
EXTT0=
EXTT1=
EXTT2=
EXTT3=
EXTT4=
EXTT5=
EXTT6=
EXTT7=
EXTT8=
EXTT9=
EXTT10=
EXTT11=
EXTT12=
EXTT13=
EXTT14=
EXTT15=
EXTT16=
EXTT17=
EXTT18=
EXTT19=
EXTT20=
EXTT21=
EXTT22=
EXTT23=
EXTT24=
EXTT25=
PLAYORDER=
